<svg width="109" height="112" viewBox="0 0 109 112" fill="none" xmlns="http://www.w3.org/2000/svg">
<path d="M55.8733 68.532L55.7706 68.652C55.2693 69.2253 52.9839 71.5586 49.4346 71.5533C47.1493 71.552 44.2986 70.604 40.9679 67.5333L40.66 67.456C40.66 67.456 40.5933 67.472 40.46 67.5C40.06 67.5826 39.0893 67.752 37.8653 67.752C36.3707 67.7533 34.5013 67.5 32.8146 66.5546C31.1279 65.6093 29.604 63.9866 28.7586 61.156C28.7066 60.9813 28.5226 60.88 28.3466 60.9306L28.2267 60.9613C27.9813 61.0186 27.384 61.1386 26.6773 61.1373C26.008 61.1386 25.244 61.0306 24.5773 60.688C23.9106 60.3426 23.3306 59.7773 22.9786 58.788L22.7759 58.584L22.4893 58.6147L22.3839 58.676C21.8759 58.964 19.5973 60.144 16.8679 60.1413C14.2013 60.132 11.1107 59.0613 8.62132 54.88L8.41728 54.7266L8.35732 54.7093C8.03599 54.6173 6.49998 54.1186 4.92132 52.8093C3.34265 51.4973 1.71861 49.388 1.17861 46.0133C1.05328 45.228 0.997294 44.4773 0.997294 43.7653C0.997294 40.8466 1.92929 38.5413 2.86129 36.9613C3.32796 36.172 3.79461 35.564 4.14261 35.1573C4.31594 34.9533 4.45999 34.8 4.55999 34.6973L4.67327 34.584L4.71064 34.5493C4.80797 34.46 4.84393 34.3213 4.80127 34.196L4.76663 34.0787C4.69863 33.8347 4.55862 33.2333 4.55862 32.484C4.55862 31.7013 4.70927 30.7653 5.23727 29.8827C5.76527 29 6.66794 28.156 8.23994 27.5573C8.36394 27.5093 8.44798 27.392 8.45465 27.26C8.45465 27.26 8.45996 27.1226 8.49196 26.8613C8.60262 25.948 9.03328 23.6226 10.5866 21.4706C12.1439 19.32 14.7946 17.3186 19.48 16.992C19.616 16.9826 19.7333 16.8893 19.7746 16.7586L19.8173 16.6333C20.0453 15.992 21.2079 13.016 24.0173 10.216C26.8293 7.41732 31.2706 4.78132 38.1426 4.77865C39.7133 4.77865 41.4119 4.9173 43.2479 5.22397L43.5333 5.13731L43.7 4.9893C44.5 4.29997 48.0866 1.50131 53.0786 1.50531C55.7746 1.50665 58.8893 2.31066 62.2506 4.71599L62.5866 4.74666L62.6346 4.7253C62.8759 4.6213 63.996 4.18132 65.3773 4.18266C67.1333 4.19466 69.2786 4.84264 70.8093 7.82664C70.8773 7.95997 71.0239 8.03198 71.1706 8.00265L71.3066 7.97999C71.5853 7.93732 72.276 7.84799 73.2386 7.84799C76.5226 7.85599 82.884 8.85865 86.9627 16.1787C87.028 16.296 87.1573 16.3627 87.2906 16.348L87.4226 16.3386C87.5133 16.3333 87.6493 16.328 87.8226 16.328C88.7119 16.3266 90.5866 16.4733 92.516 17.5053C94.4453 18.5386 96.4453 20.4413 97.6306 24.0346L97.8213 24.2386L97.88 24.2653C98.196 24.4066 99.6933 25.1333 101.097 26.632C102.501 28.1346 103.817 30.3893 103.819 33.6573L103.817 33.836L103.96 34.1133L103.988 34.1333C104.301 34.3693 107.04 36.5373 107.039 40.94C107.039 41.9866 106.884 43.1626 106.504 44.476L106.533 44.7333L106.585 44.8293C106.828 45.296 107.827 47.4 107.824 49.9693C107.824 51.1266 107.624 52.3786 107.068 53.6306C106.057 55.9026 105.083 57.2613 104.373 58.048C104.017 58.44 103.728 58.6906 103.533 58.84L103.312 58.9933L103.261 59.024L103.252 59.0293L103.281 59.0866L103.253 59.0293H103.252L103.281 59.0866L103.253 59.0293C103.139 59.0853 103.067 59.204 103.069 59.332V59.404C103.069 59.9066 103.024 62.9786 102.011 66.5066C100.999 70.0373 99.024 74.004 95.2053 76.3666C92.7613 77.8813 89.7493 78.4226 86.7226 78.4226C83.2239 78.4226 79.7159 77.7 77.0893 76.976C75.7759 76.6133 74.6826 76.252 73.9186 75.98C73.1533 75.7093 72.7253 75.5306 72.724 75.5306C72.5533 75.46 72.3586 75.5413 72.288 75.7106C72.2173 75.8813 72.2986 76.076 72.4693 76.1467C72.4893 76.152 79.5453 79.0853 86.7226 79.0893C89.8253 79.088 92.9613 78.54 95.5573 76.9333C99.5773 74.4413 101.613 70.3066 102.652 66.6906C103.691 63.0706 103.736 59.9466 103.736 59.404V59.3226L103.403 59.3266L103.552 59.6253C103.628 59.588 105.609 58.5546 107.677 53.9013C108.277 52.552 108.491 51.204 108.491 49.9693C108.488 46.8373 107.128 44.432 107.115 44.4053L106.824 44.5693L107.144 44.6613C107.541 43.292 107.705 42.052 107.705 40.94C107.701 35.9213 104.38 33.592 104.341 33.5666L104.151 33.84L104.484 33.844L104.485 33.6573C104.488 29.9733 102.881 27.4466 101.285 25.8693C99.6866 24.288 98.1 23.6333 98.0746 23.6226L97.9479 23.9306L98.264 23.8266C97.0346 20.0826 94.8973 18.0173 92.8293 16.9173C90.7627 15.8146 88.7826 15.6613 87.8226 15.6613C87.4479 15.6613 87.2279 15.684 87.2173 15.6853L87.2533 16.0173L87.5453 15.8546C83.3266 8.26796 76.6413 7.17332 73.2386 7.18132C71.9013 7.18132 71.0586 7.34532 71.0426 7.34932L71.1066 7.67598L71.4039 7.52397C69.7866 4.3213 67.3026 3.50266 65.3773 3.51599C63.6386 3.51732 62.3293 4.13199 62.3039 4.14265L62.4453 4.44399L62.6399 4.17332C59.1773 1.69332 55.9079 0.837315 53.0786 0.838648C47.0799 0.845315 43.1026 4.63063 43.0733 4.65463L43.3039 4.89597L43.3586 4.56664C41.4893 4.25331 39.7533 4.11199 38.1426 4.11199C30.6253 4.10799 25.8479 7.2173 22.9866 10.3266C20.1226 13.4346 19.1493 16.5306 19.1386 16.5586L19.4573 16.6586L19.4346 16.3266C13.8773 16.7 10.9146 19.436 9.40927 22.0666C7.89727 24.6946 7.79065 27.2013 7.78798 27.2306L8.12132 27.2453L8.00263 26.9333C6.31463 27.5733 5.26929 28.5253 4.66396 29.54C4.05863 30.556 3.89196 31.6186 3.89196 32.484C3.89196 33.5933 4.1626 34.388 4.1706 34.4107L4.48531 34.304L4.26129 34.0573C4.23196 34.0866 0.335961 37.6333 0.330627 43.7653C0.330627 44.512 0.389284 45.2986 0.51995 46.1186C1.11995 49.8986 3.05329 52.2293 4.83063 53.5893C6.60796 54.952 8.22398 55.3653 8.25198 55.372L8.3346 55.0493L8.04794 55.22C10.6226 59.5853 14.0159 60.8186 16.8679 60.808C20.2053 60.804 22.8106 59.196 22.8386 59.1827L22.664 58.8986L22.3493 59.0093C22.7493 60.1506 23.4733 60.8733 24.2733 61.2813C25.0733 61.6907 25.94 61.804 26.6773 61.804C27.7186 61.804 28.512 61.576 28.5306 61.572L28.4386 61.2506L28.1186 61.3467C29.0026 64.324 30.66 66.1186 32.4893 67.1373C34.3173 68.1586 36.2973 68.4186 37.8653 68.4186C39.58 68.4186 40.8067 68.1053 40.824 68.1013L40.7426 67.7787L40.516 68.024C43.9306 71.1773 46.9573 72.2213 49.4346 72.22C53.8453 72.2106 56.372 68.9706 56.3973 68.9426C56.5106 68.7973 56.4853 68.588 56.3413 68.4746C56.196 68.3613 55.9866 68.3866 55.8733 68.532" fill="white"/>
<path d="M63.1147 48.6067H46.0507V31.544H63.1147V48.6067Z" fill="white"/>
<path d="M48.0533 50.1386H47.0466V30.0133H48.0533V50.1386Z" fill="white"/>
<path d="M50.34 50.1386H49.3333V30.0133H50.34V50.1386Z" fill="white"/>
<path d="M52.628 50.1386H51.6213V30.0133H52.628V50.1386Z" fill="white"/>
<path d="M54.9146 50.1386H53.908V30.0133H54.9146V50.1386Z" fill="white"/>
<path d="M57.2 50.1386H56.1946V30.0133H57.2V50.1386Z" fill="white"/>
<path d="M59.488 50.1386H58.4813V30.0133H59.488V50.1386Z" fill="white"/>
<path d="M61.7747 50.1386H60.7679V30.0133H61.7747V50.1386Z" fill="white"/>
<path d="M64.4733 46.4333V47.44H44.348V46.4333H64.4733Z" fill="white"/>
<path d="M64.4733 44.1453V45.1519H44.348V44.1453H64.4733Z" fill="white"/>
<path d="M64.4733 41.86V42.8653H44.348V41.86H64.4733Z" fill="white"/>
<path d="M64.4733 39.572V40.5786H44.348V39.572H64.4733Z" fill="white"/>
<path d="M64.4733 37.2853V38.292H44.348V37.2853H64.4733Z" fill="white"/>
<path d="M64.4733 34.9987V36.004H44.348V34.9987H64.4733Z" fill="white"/>
<path d="M64.4733 32.712V33.7173H44.348V32.712H64.4733Z" fill="white"/>
<path d="M19.228 16.9013L36.7666 33.4573L36.996 33.548H46.336C46.52 33.548 46.6693 33.3987 46.6693 33.2147C46.6693 33.0307 46.52 32.8813 46.336 32.8813H37.128L19.6853 16.416C19.552 16.2907 19.3413 16.296 19.2146 16.4307C19.088 16.564 19.0946 16.7747 19.228 16.9013" fill="white"/>
<path d="M15.172 17.7186L33.4266 35.7387L33.6613 35.8347H46.336C46.52 35.8347 46.6693 35.6853 46.6693 35.5013C46.6693 35.3173 46.52 35.168 46.336 35.168H33.7987L15.6399 17.244C15.5093 17.1147 15.2986 17.116 15.1693 17.2467C15.04 17.3787 15.0413 17.5893 15.172 17.7186" fill="white"/>
<path d="M63.1146 40.4093H73.9346L103.22 59.6053C103.373 59.7067 103.58 59.664 103.681 59.5093C103.783 59.356 103.739 59.1494 103.585 59.048L74.216 39.7973L74.0333 39.7427H63.1146C62.9306 39.7427 62.7813 39.892 62.7813 40.076C62.7813 40.26 62.9306 40.4093 63.1146 40.4093" fill="white"/>
<path d="M7.87739 27.472L21.9294 42.5893L22.1734 42.6946H46.0507C46.2347 42.6946 46.384 42.5466 46.384 42.3613C46.384 42.1773 46.2347 42.0293 46.0507 42.0293L22.3187 42.028L8.36541 27.0186C8.24008 26.884 8.02937 26.876 7.89471 27.0013C7.75871 27.1266 7.75206 27.3373 7.87739 27.472" fill="white"/>
<path d="M4.23994 34.528L13.7119 44.8747L13.9586 44.9827H46.0506C46.2346 44.9827 46.3839 44.8333 46.3839 44.6493C46.3839 44.4653 46.2346 44.316 46.0506 44.316H14.1053L4.73199 34.0787C4.60666 33.9427 4.39599 33.9333 4.25999 34.0573C4.12532 34.1813 4.11594 34.3933 4.23994 34.528Z" fill="white"/>
<path d="M15.984 27.5493H25.268C25.452 27.5493 25.6013 27.4 25.6013 27.216C25.6013 27.032 25.452 26.8827 25.268 26.8827H15.984C15.8 26.8827 15.6506 27.032 15.6506 27.216C15.6506 27.4 15.8 27.5493 15.984 27.5493Z" fill="white"/>
<path d="M22.188 33.2L21.764 42.3467C21.7546 42.5307 21.8973 42.6866 22.0813 42.6946C22.2653 42.704 22.4213 42.5613 22.4293 42.3773L22.8533 33.2306C22.8626 33.0466 22.72 32.8907 22.536 32.8813C22.352 32.8733 22.196 33.016 22.188 33.2Z" fill="white"/>
<path d="M15.7506 27.2453H15.4173C15.4173 27.7066 15.044 28.08 14.5826 28.0813C14.12 28.08 13.7466 27.7066 13.7466 27.2453C13.7466 26.784 14.12 26.4106 14.5826 26.4093C15.044 26.4106 15.4173 26.784 15.4173 27.2453H15.7506H16.0839C16.0839 26.416 15.412 25.7426 14.5826 25.7426C13.752 25.7426 13.08 26.416 13.08 27.2453C13.08 28.076 13.752 28.748 14.5826 28.748C15.412 28.748 16.0839 28.076 16.0839 27.2453H15.7506Z" fill="white"/>
<path d="M38.2667 20.464H47.5494C47.7334 20.464 47.8827 20.3146 47.8827 20.1306C47.8827 19.9466 47.7334 19.7973 47.5494 19.7973H38.2667C38.0827 19.7973 37.9333 19.9466 37.9333 20.1306C37.9333 20.3146 38.0827 20.464 38.2667 20.464Z" fill="white"/>
<path d="M38.0333 20.16H37.7C37.7 20.6213 37.3267 20.9947 36.864 20.996C36.4027 20.9947 36.0293 20.6213 36.028 20.16C36.0293 19.6987 36.4027 19.3253 36.864 19.324C37.3267 19.3253 37.7 19.6987 37.7 20.16H38.0333H38.3667C38.3667 19.3307 37.6947 18.6573 36.864 18.6573C36.0347 18.6573 35.3627 19.3307 35.3613 20.16C35.3627 20.9907 36.0347 21.6627 36.864 21.6627C37.6947 21.6627 38.3667 20.9907 38.3667 20.16H38.0333Z" fill="white"/>
<path d="M70.556 26.128H61.272C61.088 26.128 60.9387 26.2773 60.9387 26.4613C60.9387 26.6453 61.088 26.7946 61.272 26.7946H70.556C70.74 26.7946 70.8893 26.6453 70.8893 26.4613C70.8893 26.2773 70.74 26.128 70.556 26.128Z" fill="white"/>
<path d="M70.7893 26.492H70.4559C70.4559 27.3213 71.128 27.9933 71.9573 27.9933C72.7866 27.9933 73.46 27.3213 73.46 26.492C73.46 25.6613 72.7866 24.9893 71.9573 24.9893C71.128 24.9893 70.4559 25.6613 70.4559 26.492H70.7893H71.1226C71.1226 26.0293 71.4973 25.656 71.9573 25.656C72.4186 25.656 72.792 26.0293 72.7933 26.492C72.792 26.952 72.4186 27.3253 71.9573 27.3267C71.4973 27.3253 71.1226 26.952 71.1226 26.492H70.7893Z" fill="white"/>
<path d="M81.2413 55.492H71.9574C71.7734 55.492 71.624 55.6413 71.624 55.8253C71.624 56.0093 71.7734 56.1586 71.9574 56.1586H81.2413C81.4253 56.1586 81.5747 56.0093 81.5747 55.8253C81.5747 55.6413 81.4253 55.492 81.2413 55.492Z" fill="white"/>
<path d="M81.4733 55.856H81.14C81.1413 56.6853 81.8133 57.3573 82.6426 57.3586C83.4733 57.3573 84.1453 56.6853 84.1453 55.856C84.1453 55.0253 83.4733 54.3533 82.6426 54.3533C81.8133 54.3533 81.1413 55.0253 81.14 55.856H81.4733H81.8066C81.808 55.3933 82.1813 55.02 82.6426 55.02C83.1053 55.02 83.4786 55.3933 83.4786 55.856C83.4786 56.3173 83.1053 56.6906 82.6426 56.692C82.1813 56.6906 81.808 56.3173 81.8066 55.856H81.4733Z" fill="white"/>
<path d="M63.1146 55.472H62.7813C62.7813 56.3013 63.4533 56.9733 64.284 56.9733C65.1133 56.9733 65.7853 56.3013 65.7853 55.472C65.7853 54.6413 65.1133 53.9693 64.284 53.9693C63.4533 53.9693 62.7813 54.6413 62.7813 55.472H63.1146H63.448C63.4493 55.0093 63.8226 54.636 64.284 54.636C64.744 54.636 65.1173 55.0093 65.1187 55.472C65.1173 55.9333 64.744 56.3067 64.284 56.3067C63.8226 56.3067 63.4493 55.9333 63.448 55.472H63.1146Z" fill="white"/>
<path d="M87.4574 64.3093H72.596C72.412 64.3093 72.2627 64.4586 72.2627 64.6426C72.2627 64.8266 72.412 64.976 72.596 64.976H87.4574C87.6414 64.976 87.7907 64.8266 87.7907 64.6426C87.7907 64.4586 87.6414 64.3093 87.4574 64.3093Z" fill="white"/>
<path d="M87.404 64.6906H87.0706C87.0706 65.6053 87.812 66.348 88.7267 66.348C89.6413 66.348 90.3827 65.6053 90.3827 64.6906C90.3827 63.776 89.6413 63.0346 88.7267 63.0333C87.812 63.0346 87.0706 63.776 87.0706 64.6906H87.404H87.7373C87.7373 64.144 88.18 63.7013 88.7267 63.7C89.2733 63.7013 89.7147 64.144 89.716 64.6906C89.7147 65.2373 89.272 65.68 88.7267 65.6813C88.18 65.68 87.7373 65.2373 87.7373 64.6906H87.404Z" fill="white"/>
<path d="M77.0987 110.195H76.7654C76.7654 111.109 77.5067 111.849 78.4214 111.851C79.3374 111.851 80.0787 111.109 80.08 110.195C80.08 109.279 79.3374 108.536 78.4214 108.536C77.5067 108.536 76.7654 109.279 76.7654 110.195H77.0987H77.432C77.4334 109.647 77.876 109.204 78.4214 109.203C78.9694 109.204 79.412 109.647 79.4134 110.195C79.412 110.74 78.9694 111.183 78.4214 111.184C77.876 111.183 77.4334 110.74 77.432 110.195H77.0987Z" fill="white"/>
<path d="M70.6346 105.68H70.3013C70.3013 106.595 71.0427 107.336 71.9573 107.336C72.8733 107.336 73.6146 106.595 73.6146 105.68C73.6146 104.765 72.8733 104.024 71.9573 104.024C71.0427 104.024 70.3013 104.765 70.3013 105.68H70.6346H70.9679C70.9679 105.133 71.4107 104.691 71.9573 104.691C72.5053 104.691 72.9466 105.133 72.9479 105.68C72.9466 106.225 72.5053 106.668 71.9573 106.669C71.4107 106.668 70.9679 106.225 70.9679 105.68H70.6346Z" fill="white"/>
<path d="M61.5213 102.291H61.188C61.188 103.205 61.9293 103.947 62.844 103.947C63.7586 103.947 64.5 103.205 64.5 102.291C64.5 101.375 63.7586 100.633 62.844 100.633C61.9293 100.633 61.188 101.375 61.188 102.291H61.5213H61.8547C61.8547 101.743 62.2973 101.3 62.844 101.3C63.3893 101.3 63.832 101.743 63.8333 102.291C63.832 102.836 63.3893 103.279 62.844 103.28C62.2973 103.279 61.8547 102.836 61.8547 102.291H61.5213Z" fill="white"/>
<path d="M54.0146 108.061H53.6813C53.6813 108.976 54.4226 109.717 55.3386 109.717C56.2533 109.717 56.9946 108.976 56.9946 108.061C56.9946 107.147 56.2533 106.405 55.3386 106.405C54.4226 106.405 53.6813 107.147 53.6813 108.061H54.0146H54.3479C54.3479 107.515 54.7906 107.072 55.3386 107.072C55.8853 107.072 56.3266 107.515 56.328 108.061C56.3266 108.608 55.8853 109.049 55.3386 109.051C54.7906 109.049 54.3479 108.607 54.3479 108.061H54.0146Z" fill="white"/>
<path d="M93.656 46.0546H93.3226C93.3226 46.8853 93.996 47.5573 94.8253 47.5573C95.656 47.5573 96.328 46.8853 96.328 46.0546C96.328 45.224 95.656 44.552 94.8253 44.552C93.996 44.552 93.3226 45.224 93.3226 46.0546H93.656H93.9893C93.9906 45.5933 94.364 45.22 94.8253 45.2186C95.2866 45.22 95.66 45.5933 95.6613 46.0546C95.66 46.516 95.2866 46.8893 94.8253 46.8906C94.364 46.8893 93.9906 46.516 93.9893 46.0546H93.656Z" fill="white"/>
<path d="M23.6907 31.544H23.3573C23.356 32.0053 22.9827 32.3787 22.5213 32.38C22.0613 32.3787 21.6866 32.0053 21.6866 31.544C21.6866 31.0827 22.0613 30.7093 22.5213 30.708C22.9827 30.7093 23.356 31.0827 23.3573 31.544H23.6907H24.024C24.0227 30.7147 23.3507 30.0413 22.5213 30.0413C21.692 30.0427 21.02 30.7147 21.02 31.544C21.02 32.3733 21.692 33.0453 22.5213 33.0467C23.3507 33.0467 24.0227 32.3733 24.024 31.544H23.6907Z" fill="white"/>
<path d="M25.2679 54.6866H24.9346C24.9346 55.148 24.56 55.5213 24.0987 55.5226C23.6373 55.5213 23.264 55.148 23.2627 54.6866C23.264 54.224 23.6373 53.8506 24.0987 53.8506C24.56 53.8506 24.9346 54.224 24.9346 54.6866H25.2679H25.6013C25.6013 53.856 24.9293 53.184 24.0987 53.184C23.2693 53.184 22.596 53.856 22.596 54.6866C22.596 55.516 23.2693 56.188 24.0987 56.1893C24.9293 56.188 25.6013 55.516 25.6013 54.6866H25.2679Z" fill="white"/>
<path d="M46.336 46.6027H36.216C36.0934 46.6027 35.9813 46.6693 35.9227 46.7773L28.1453 61.092C28.0573 61.2533 28.1173 61.456 28.28 61.544C28.4413 61.632 28.644 61.572 28.732 61.4107L36.4146 47.2693H46.336C46.52 47.2693 46.6693 47.12 46.6693 46.936C46.6693 46.752 46.52 46.6027 46.336 46.6027" fill="white"/>
<path d="M25.0506 53.6707L29.6479 44.8027C29.7319 44.64 29.668 44.4386 29.5053 44.3533C29.3413 44.2693 29.1399 44.3333 29.0559 44.496L24.4586 53.364C24.3746 53.5267 24.4386 53.728 24.6013 53.8133C24.7653 53.8973 24.9666 53.8333 25.0506 53.6707Z" fill="white"/>
<path d="M11.0679 52.368H10.7346C10.7333 52.828 10.36 53.2027 9.89867 53.2027C9.43733 53.2027 9.06266 52.828 9.06266 52.368C9.06266 51.9067 9.43733 51.5333 9.89867 51.532C10.36 51.5333 10.7333 51.9067 10.7346 52.368H11.0679H11.4013C11.4013 51.5387 10.728 50.8667 9.89867 50.8653C9.068 50.8667 8.396 51.5387 8.396 52.368C8.396 53.1973 9.068 53.8693 9.89867 53.8693C10.728 53.8693 11.4013 53.1973 11.4013 52.368H11.0679Z" fill="white"/>
<path d="M10.8826 51.352L14.2773 44.8027C14.3626 44.64 14.2986 44.4387 14.1346 44.3533C13.9719 44.2693 13.7706 44.3333 13.6853 44.496L10.2906 51.0453C10.2066 51.2093 10.2706 51.4107 10.4333 51.4947C10.5973 51.58 10.7986 51.516 10.8826 51.352Z" fill="white"/>
<path d="M47.8827 31.544V15.8187L47.86 15.6973L43.6147 4.77468C43.5467 4.60401 43.3547 4.51866 43.1827 4.58532C43.0107 4.65199 42.9254 4.84535 42.9934 5.01602L47.216 15.8814V31.544C47.216 31.728 47.3654 31.8773 47.5494 31.8773C47.7334 31.8773 47.8827 31.728 47.8827 31.544" fill="white"/>
<path d="M62.184 4.23868L54.1493 14.4293L54.0786 14.636V31.544C54.0786 31.728 54.2279 31.8773 54.4119 31.8773C54.5959 31.8773 54.7453 31.728 54.7453 31.544V14.7507L62.7066 4.65066C62.8213 4.50666 62.796 4.29736 62.652 4.18269C62.5067 4.06936 62.2973 4.09335 62.184 4.23868Z" fill="white"/>
<path d="M70.8387 7.47735L61.004 20.7947L60.9387 20.992V31.544C60.9387 31.728 61.088 31.8773 61.272 31.8773C61.456 31.8773 61.6053 31.728 61.6053 31.544V21.1013L71.3747 7.87334C71.484 7.72534 71.4533 7.51735 71.3053 7.40801C71.1573 7.29868 70.948 7.32935 70.8387 7.47735Z" fill="white"/>
<path d="M86.9773 15.8307L73.8893 35.168H63.1146C62.9306 35.168 62.7813 35.3173 62.7813 35.5013C62.7813 35.6853 62.9306 35.8347 63.1146 35.8347H74.0667L74.3426 35.688L87.5294 16.204C87.6334 16.0507 87.5933 15.844 87.4413 15.7413C87.288 15.6373 87.0813 15.6773 86.9773 15.8307" fill="white"/>
<path d="M97.676 23.7373L87.9107 37.4546H63.1146C62.9306 37.4546 62.7813 37.604 62.7813 37.788C62.7813 37.972 62.9306 38.1213 63.1146 38.1213H88.0827L88.3533 37.9813L98.22 24.124C98.3267 23.9733 98.2907 23.7653 98.1413 23.6586C97.9907 23.552 97.7826 23.5867 97.676 23.7373" fill="white"/>
<path d="M103.96 33.3067L95.2386 44.952C95.1279 45.1 95.1586 45.3093 95.3053 45.4186C95.4533 45.5293 95.6613 45.5 95.7719 45.352L104.493 33.7067C104.604 33.56 104.573 33.3507 104.427 33.24C104.279 33.1307 104.071 33.16 103.96 33.3067Z" fill="white"/>
<path d="M99.888 52.3053H99.5547C99.5547 53.136 100.227 53.808 101.057 53.808C101.887 53.808 102.56 53.136 102.56 52.3053C102.56 51.476 101.887 50.804 101.057 50.804C100.227 50.804 99.5547 51.476 99.5547 52.3053H99.888H100.221C100.223 51.844 100.596 51.4706 101.057 51.4706C101.519 51.4706 101.892 51.844 101.893 52.3053C101.892 52.768 101.519 53.1413 101.057 53.1413C100.596 53.1413 100.223 52.768 100.221 52.3053H99.888Z" fill="white"/>
<path d="M106.657 43.9467L101.423 50.9373C101.312 51.084 101.341 51.2933 101.489 51.404C101.636 51.5133 101.845 51.484 101.956 51.336L107.191 44.3453C107.301 44.1986 107.272 43.9893 107.124 43.8786C106.977 43.7693 106.768 43.7987 106.657 43.9467Z" fill="white"/>
<path d="M63.1146 47.2693H70.2453L72.264 75.8626C72.2773 76.0453 72.436 76.184 72.62 76.1707C72.804 76.1587 72.9414 75.9987 72.9294 75.8147L70.888 46.9133C70.876 46.7387 70.7307 46.6027 70.556 46.6027H63.1146C62.9306 46.6027 62.7813 46.752 62.7813 46.936C62.7813 47.12 62.9306 47.2693 63.1146 47.2693" fill="white"/>
<path d="M41.0386 67.9307L47.2506 55.8053H62.8053C62.9906 55.8053 63.1386 55.656 63.1386 55.472C63.1386 55.2867 62.9906 55.1387 62.8053 55.1387H47.0466C46.9213 55.1387 46.8066 55.208 46.7506 55.32L40.4453 67.6266C40.3613 67.7906 40.4267 67.992 40.5907 68.076C40.7547 68.1587 40.9546 68.0947 41.0386 67.9307Z" fill="white"/>
<path d="M55.8627 42.3337L56.964 70.2973L53.7893 74.473L53.6813 74.8526L54.7493 106.292C54.7586 106.558 54.9147 106.763 55.0987 106.749C55.2827 106.736 55.4239 106.51 55.4146 106.244L54.3546 75.0337L57.5306 70.8562L57.6386 70.4727L56.528 42.2798C56.5173 42.0138 56.3599 41.8115 56.1759 41.8269C55.9919 41.8404 55.852 42.0697 55.8627 42.3337" fill="white"/>
<path d="M60.2706 41.8203L62.5106 100.828C62.5213 101.104 62.6786 101.314 62.8626 101.298C63.0466 101.282 63.1866 101.046 63.1759 100.77L60.936 41.7643C60.9253 41.4883 60.7679 41.2763 60.5839 41.2923C60.3999 41.3083 60.2599 41.5443 60.2706 41.8203" fill="white"/>
<path d="M64.056 41.8065L65.4253 76.9058C65.4333 77.1142 65.5306 77.2895 65.668 77.346L70.9627 79.5119L71.624 104.222C71.6307 104.49 71.7866 104.701 71.9706 104.689C72.1533 104.679 72.2973 104.453 72.2907 104.185L71.62 79.1204C71.6133 78.9081 71.516 78.727 71.376 78.6705L66.0773 76.5026L64.7226 41.7519C64.712 41.4831 64.5546 41.2767 64.3706 41.2922C64.1866 41.3078 64.0466 41.5377 64.056 41.8065" fill="white"/>
<path d="M68.192 41.5517L69.3453 70.2458C69.3533 70.4534 69.456 70.627 69.5973 70.678L76.284 73.0294L78.0893 108.764C78.1026 109.025 78.2613 109.221 78.4453 109.202C78.6293 109.183 78.768 108.957 78.7547 108.698L76.932 72.6198C76.9213 72.4179 76.8186 72.2462 76.6786 72.1971L69.9973 69.8457L68.8573 41.4989C68.8467 41.2384 68.6893 41.0403 68.5053 41.0535C68.3213 41.0686 68.1813 41.2913 68.192 41.5517" fill="white"/>
</svg>
